<svg xmlns="http://www.w3.org/2000/svg" viewBox="0 0 200 200">
  <defs>
    <linearGradient id="trayBC" x1="0%" y1="0%" x2="0%" y2="100%">
      <stop offset="0%" stop-color="#8B5A3C"/>
      <stop offset="100%" stop-color="#5C3D28"/>
    </linearGradient>
  </defs>
  <!-- 그림자 -->
  <ellipse cx="100" cy="172" rx="80" ry="8" fill="rgba(0,0,0,0.18)"/>
  <!-- 나무 쟁반 -->
  <rect x="20" y="65" width="160" height="105" rx="14" fill="url(#trayBC)" stroke="#3d2817" stroke-width="2"/>
  <rect x="25" y="70" width="150" height="95" rx="10" fill="#A0744F" opacity="0.6"/>

  <!-- 칸 1: 김치 (왼쪽 위) -->
  <rect x="32" y="78" width="62" height="40" rx="6" fill="#fff" stroke="#d8c8a8" stroke-width="1.5"/>
  <ellipse cx="63" cy="98" rx="22" ry="11" fill="#d63031"/>
  <ellipse cx="55" cy="95" rx="6" ry="3" fill="#e84a4a"/>
  <ellipse cx="70" cy="100" rx="6" ry="3" fill="#e84a4a"/>
  <circle cx="65" cy="98" r="2" fill="#a01a1a"/>

  <!-- 칸 2: 나물 (오른쪽 위) -->
  <rect x="106" y="78" width="62" height="40" rx="6" fill="#fff" stroke="#d8c8a8" stroke-width="1.5"/>
  <ellipse cx="137" cy="98" rx="22" ry="10" fill="#1D9E75"/>
  <path d="M 122 95 Q 130 88 138 95" stroke="#4ec88f" stroke-width="2" fill="none"/>
  <path d="M 132 92 Q 140 85 148 92" stroke="#4ec88f" stroke-width="2" fill="none"/>
  <circle cx="125" cy="98" r="2" fill="#fff8e7"/>
  <circle cx="145" cy="100" r="2" fill="#fff8e7"/>

  <!-- 칸 3: 조림 (왼쪽 아래) -->
  <rect x="32" y="125" width="62" height="35" rx="6" fill="#fff" stroke="#d8c8a8" stroke-width="1.5"/>
  <ellipse cx="63" cy="143" rx="22" ry="9" fill="#5C3D1E"/>
  <ellipse cx="56" cy="141" rx="5" ry="4" fill="#8B5A2B"/>
  <ellipse cx="70" cy="144" rx="5" ry="4" fill="#8B5A2B"/>
  <ellipse cx="62" cy="146" rx="4" ry="3" fill="#A06B33"/>

  <!-- 칸 4: 밥 (오른쪽 아래) -->
  <rect x="106" y="125" width="62" height="35" rx="6" fill="#fff" stroke="#d8c8a8" stroke-width="1.5"/>
  <ellipse cx="137" cy="142" rx="24" ry="11" fill="#fffdf5"/>
  <circle cx="130" cy="140" r="1.5" fill="#e8e0c8"/>
  <circle cx="145" cy="142" r="1.5" fill="#e8e0c8"/>
  <circle cx="138" cy="144" r="1.5" fill="#e8e0c8"/>
</svg>
