<svg xmlns="http://www.w3.org/2000/svg" viewBox="0 0 200 200">
  <defs>
    <linearGradient id="boxLid" x1="0%" y1="0%" x2="0%" y2="100%">
      <stop offset="0%" stop-color="#EF9F27"/>
      <stop offset="100%" stop-color="#d68a18"/>
    </linearGradient>
  </defs>
  <!-- 그림자 -->
  <ellipse cx="100" cy="172" rx="78" ry="9" fill="rgba(0,0,0,0.18)"/>
  <!-- 도시락 본체 -->
  <rect x="22" y="80" width="156" height="92" rx="10" fill="#fff8e7" stroke="#c9b896" stroke-width="2"/>
  <rect x="22" y="80" width="156" height="14" rx="10" fill="url(#boxLid)"/>

  <!-- 칸막이 -->
  <line x1="100" y1="100" x2="100" y2="170" stroke="#c9b896" stroke-width="2"/>
  <line x1="22" y1="135" x2="100" y2="135" stroke="#c9b896" stroke-width="2"/>

  <!-- 메인: 불고기 (오른쪽) -->
  <ellipse cx="139" cy="135" rx="32" ry="26" fill="#5C3D1E"/>
  <ellipse cx="130" cy="128" rx="10" ry="6" fill="#8B5A2B"/>
  <ellipse cx="145" cy="135" rx="9" ry="5" fill="#8B5A2B"/>
  <ellipse cx="138" cy="145" rx="8" ry="5" fill="#8B5A2B"/>
  <!-- 깨 -->
  <circle cx="135" cy="130" r="1.2" fill="#fffdf5"/>
  <circle cx="148" cy="138" r="1.2" fill="#fffdf5"/>
  <circle cx="138" cy="142" r="1.2" fill="#fffdf5"/>
  <circle cx="125" cy="135" r="1.2" fill="#fffdf5"/>
  <!-- 파 -->
  <rect x="128" y="125" width="8" height="2" rx="1" fill="#1D9E75"/>
  <rect x="142" y="140" width="8" height="2" rx="1" fill="#1D9E75"/>

  <!-- 밥 (왼쪽 위) -->
  <ellipse cx="61" cy="115" rx="32" ry="14" fill="#fffdf5"/>
  <circle cx="55" cy="113" r="1.2" fill="#e8e0c8"/>
  <circle cx="65" cy="115" r="1.2" fill="#e8e0c8"/>
  <circle cx="58" cy="118" r="1.2" fill="#e8e0c8"/>
  <circle cx="68" cy="116" r="1.2" fill="#e8e0c8"/>
  <!-- 깨 -->
  <ellipse cx="61" cy="113" rx="3" ry="1.5" fill="#1D9E75" opacity="0.7"/>

  <!-- 반찬 (왼쪽 아래) -->
  <ellipse cx="61" cy="155" rx="32" ry="13" fill="#FFD580"/>
  <circle cx="52" cy="153" r="3" fill="#EF9F27"/>
  <circle cx="68" cy="155" r="3" fill="#EF9F27"/>
  <circle cx="60" cy="158" r="3" fill="#EF9F27"/>
  <ellipse cx="55" cy="156" rx="2" ry="1" fill="#1D9E75"/>
  <ellipse cx="70" cy="158" rx="2" ry="1" fill="#1D9E75"/>

  <!-- 김 -->
  <path d="M 90 100 Q 100 95 110 100 L 110 130 L 90 130 Z" fill="#1a1a1a" opacity="0.85"/>
</svg>
